<svg width="200" height="41" viewBox="0 0 200 41" fill="none" xmlns="http://www.w3.org/2000/svg">
<path fill-rule="evenodd" clip-rule="evenodd" d="M186.01 0.510072C186.01 0.228232 185.781 -0.000244141 185.5 -0.000244141H184.991C184.749 -0.000244141 184.552 0.196518 184.552 0.439236C184.552 6.76857 179.421 11.8995 173.092 11.8995H172.578C172.266 11.8995 172.013 12.1525 172.013 12.4647V13.3811C172.013 13.7171 172.285 13.9895 172.621 13.9895L186.003 13.9895V13.9911H188.864V15.3613C188.864 15.5158 188.738 15.6411 188.584 15.6411H186.003L186.003 19.0274V25.5119C186.003 25.7937 186.231 26.0222 186.513 26.0222H187.021C187.264 26.0222 187.461 25.8255 187.461 25.5827C187.461 19.2534 192.592 14.1225 198.921 14.1225H199.435C199.747 14.1225 200 13.8694 200 13.5573V12.621C200 12.2805 199.724 12.0044 199.384 12.0044H186.01V12.0038H183.149V10.6607C183.149 10.5061 183.275 10.3809 183.429 10.3809H186.01L186.01 6.99462V0.510072Z" fill="white"/>
<path fill-rule="evenodd" clip-rule="evenodd" d="M20.6997 15.5622H16.1581L14.0264 16.033L14.0545 32.6953C14.0545 33.5813 14.1508 34.2362 14.3435 34.6599C14.5553 35.0644 14.8828 35.3341 15.3258 35.4689C15.7881 35.5845 16.4044 35.6423 17.1749 35.6423H19.7653C19.5248 34.92 19.4046 34.1185 19.4046 33.2377C19.4046 30.7103 20.3136 28.8036 22.1316 27.5177C23.9643 26.2318 26.8834 25.5593 30.8889 25.5002L34.3032 25.4115V23.8596C34.3032 22.6476 33.9411 21.7017 33.2168 21.0218C32.5074 20.3271 31.3988 19.9871 29.8912 20.0019C28.7827 20.0167 27.7629 20.2827 26.8317 20.8001C25.9153 21.3026 25.3093 22.1525 25.0137 23.3497H20.4244C20.5131 21.7829 20.9639 20.4749 21.7768 19.4255C22.6045 18.3613 23.7352 17.5706 25.1689 17.0532C26.6026 16.5211 28.258 16.2551 30.1351 16.2551C32.3226 16.2551 34.1036 16.5433 35.4782 17.1197C36.8528 17.6962 37.8652 18.5313 38.5156 19.625C39.1659 20.704 39.4911 22.012 39.4911 23.5492V39.6228H34.9461L34.5249 35.4991C33.6972 37.2284 32.6478 38.4256 31.3767 39.0907C30.1203 39.741 28.6793 40.0662 27.0534 40.0662C25.5902 40.0662 24.2747 39.8002 23.1071 39.2681C22.2027 38.8391 21.4484 38.2691 20.8442 37.5582V40.0916C20.459 40.2457 19.8715 40.3806 19.0818 40.4961C18.3113 40.631 17.2712 40.6984 15.9614 40.6984C13.5923 40.6984 11.7528 40.3902 10.443 39.7738C9.1525 39.1382 8.25685 38.2426 7.75605 37.0869C7.25525 35.9312 7.00485 34.554 7.00485 32.9553V18.6685L6.70006 17.0348L0.307827 17.0351C0.054088 17.0351 -0.0903005 16.7452 0.0627184 16.5429L2.15098 13.7827V10.5928H2.72567L0.413503 5.86286C0.285754 5.60153 0.5594 5.32569 0.822027 5.45106L5.92699 7.88811C6.49511 8.15932 7.17134 8.05667 7.63324 7.6291L7.83265 7.4445L8.96952 1.7229H14.0256V10.5639H20.6997V15.5622ZM30.7781 36.0534C30.1277 36.2898 29.47 36.4081 28.8049 36.4081C27.5929 36.4081 26.5805 36.0829 25.7675 35.4326C24.9546 34.7675 24.5482 33.8511 24.5482 32.6834C24.5482 31.6636 24.8364 30.8507 25.4128 30.2447C26.004 29.6239 26.8169 29.1731 27.8516 28.8923C28.8862 28.6115 30.0982 28.4637 31.4875 28.4489L34.3032 28.4045V32.0183C34.3032 32.58 34.1406 33.1195 33.8154 33.6368C33.505 34.1541 33.0838 34.6271 32.5517 35.0557C32.0196 35.4695 31.4284 35.8021 30.7781 36.0534ZM48.8619 39.4011C49.7487 39.7706 50.9312 39.9554 52.4092 39.9554C52.7935 39.9554 53.1926 39.911 53.6064 39.8223C54.0203 39.7337 54.4267 39.6302 54.8258 39.512V36.1199L53.6729 36.0755C52.7565 35.9868 52.0914 35.6691 51.6776 35.1222C51.2785 34.5753 51.079 33.8067 51.079 32.8165V6.67745H45.8024V33.4372C45.8024 34.2502 45.8689 35.0483 46.0019 35.8316C46.1349 36.6002 46.4232 37.2949 46.8666 37.9157C47.31 38.5364 47.9751 39.0316 48.8619 39.4011ZM64.2112 32.8608C63.7825 31.8557 63.5756 30.7029 63.5904 29.4022H79.4423V27.7616C79.4423 25.4559 79.0432 23.4457 78.2451 21.7312C77.4617 20.0019 76.2941 18.6569 74.7422 17.6962C73.205 16.7355 71.3057 16.2551 69.0443 16.2551C66.7682 16.2551 64.8172 16.7798 63.1913 17.8292C61.5803 18.8786 60.3461 20.3197 59.4889 22.1525C58.6316 23.9704 58.203 26.0545 58.203 28.4045C58.203 30.8137 58.6685 32.8904 59.5997 34.6344C60.5457 36.3785 61.8537 37.7235 63.5239 38.6695C65.2088 39.6006 67.1599 40.0662 69.3769 40.0662C70.9141 40.0662 72.3921 39.778 73.811 39.2016C75.2447 38.6251 76.4641 37.7826 77.4691 36.6741C78.4742 35.5656 79.1097 34.2132 79.3758 32.6169H74.4318C74.1214 33.7846 73.4932 34.6566 72.5473 35.233C71.6161 35.7947 70.515 36.0755 69.2439 36.0755C68.0023 36.0755 66.9603 35.7947 66.1178 35.233C65.2754 34.6566 64.6398 33.8659 64.2112 32.8608ZM74.3431 26.0545H63.5904C63.5756 25.079 63.7752 24.1404 64.189 23.2388C64.6029 22.3224 65.2162 21.576 66.0292 20.9996C66.8421 20.4232 67.8397 20.1349 69.0222 20.1349C70.2194 20.1349 71.2097 20.401 71.993 20.9331C72.7912 21.4504 73.3824 22.1598 73.7667 23.0614C74.1509 23.9483 74.3431 24.9459 74.3431 26.0545ZM84.4708 16.6985V39.6228H89.8583V24.6577C89.8583 23.7857 90.0948 23.0614 90.5677 22.485C91.0555 21.8938 91.6836 21.4578 92.4522 21.177C93.2208 20.8813 94.0337 20.7335 94.891 20.7335C96.1473 20.7335 97.1893 21.103 98.017 21.8421C98.8447 22.5663 99.2586 23.6822 99.2586 25.1898V39.6228H104.668V24.5469C104.668 22.655 104.291 21.1104 103.537 19.9132C102.798 18.716 101.816 17.8366 100.589 17.2749C99.3768 16.7133 98.0614 16.4325 96.6424 16.4325C95.4305 16.4325 94.3737 16.6024 93.4721 16.9424C92.5705 17.2823 91.8093 17.7257 91.1885 18.2726C90.5825 18.8195 90.1021 19.3885 89.7474 19.9797V16.6985H84.4708ZM117.198 20.5118H122.319V16.6763H117.198V9.89217H113.318L111.965 16.6985H108.086V20.5118H111.81V33.8585C111.81 35.0852 112.002 36.142 112.387 37.0289C112.771 37.9157 113.458 38.603 114.448 39.0907C115.454 39.5637 116.865 39.8002 118.683 39.8002C119.688 39.8002 120.486 39.7484 121.077 39.645C121.683 39.5563 122.134 39.4528 122.43 39.3346V35.9203H119.614C119.023 35.9203 118.55 35.876 118.195 35.7873C117.855 35.6838 117.604 35.4769 117.441 35.1665C117.294 34.8414 117.22 34.3388 117.22 33.6589L117.198 20.5118ZM131.805 32.8608C131.377 31.8557 131.17 30.7029 131.184 29.4022H147.036V27.7616C147.036 25.4559 146.637 23.4457 145.839 21.7312C145.056 20.0019 143.888 18.6569 142.336 17.6962C140.799 16.7355 138.9 16.2551 136.638 16.2551C134.362 16.2551 132.411 16.7798 130.785 17.8292C129.174 18.8786 127.94 20.3197 127.083 22.1525C126.226 23.9704 125.797 26.0545 125.797 28.4045C125.797 30.8137 126.263 32.8904 127.194 34.6344C128.14 36.3785 129.448 37.7235 131.118 38.6695C132.803 39.6006 134.754 40.0662 136.971 40.0662C138.508 40.0662 139.986 39.778 141.405 39.2016C142.839 38.6251 144.058 37.7826 145.063 36.6741C146.068 35.5656 146.704 34.2132 146.97 32.6169H142.026C141.715 33.7846 141.087 34.6566 140.141 35.233C139.21 35.7947 138.109 36.0755 136.838 36.0755C135.596 36.0755 134.554 35.7947 133.712 35.233C132.869 34.6566 132.234 33.8659 131.805 32.8608ZM141.937 26.0545H131.184C131.17 25.079 131.369 24.1404 131.783 23.2388C132.197 22.3224 132.81 21.576 133.623 20.9996C134.436 20.4232 135.434 20.1349 136.616 20.1349C137.813 20.1349 138.804 20.401 139.587 20.9331C140.385 21.4504 140.976 22.1598 141.361 23.0614C141.745 23.9483 141.937 24.9459 141.937 26.0545ZM152.065 16.6985V39.6228H157.452V26.2983C157.452 25.4411 157.6 24.6947 157.896 24.0591C158.191 23.4088 158.627 22.8767 159.204 22.4628C159.795 22.0342 160.512 21.7312 161.354 21.5538C162.212 21.3765 163.194 21.3321 164.303 21.4208C164.495 21.4208 164.717 21.4356 164.968 21.4652C165.234 21.4947 165.448 21.5465 165.611 21.6204V16.4546C165.493 16.3807 165.308 16.329 165.057 16.2994C164.806 16.2699 164.547 16.2551 164.281 16.2551C163.187 16.2551 162.175 16.4694 161.243 16.898C160.312 17.3267 159.499 17.9474 158.805 18.7604C158.125 19.5585 157.6 20.5266 157.231 21.6647V16.6985H152.065ZM169.732 16.6985V39.6228H175.119V24.6577C175.119 23.7857 175.356 23.0614 175.829 22.485C176.317 21.8938 176.945 21.4578 177.713 21.177C178.482 20.8813 179.295 20.7335 180.152 20.7335C181.408 20.7335 182.45 21.103 183.278 21.8421C184.106 22.5663 184.52 23.6822 184.52 25.1898V39.6228H189.929V24.5469C189.929 22.655 189.552 21.1104 188.799 19.9132C188.06 18.716 187.077 17.8366 185.85 17.2749C184.638 16.7133 183.322 16.4325 181.904 16.4325C180.692 16.4325 179.635 16.6024 178.733 16.9424C177.832 17.2823 177.07 17.7257 176.45 18.2726C175.844 18.8195 175.363 19.3885 175.009 19.9797V16.6985H169.732Z" fill="white"/>
</svg>
