<svg width="1440" height="845" viewBox="0 0 1440 845" fill="none" xmlns="http://www.w3.org/2000/svg">
<g filter="url(#filter0_f_11196_63433)">
<path fill-rule="evenodd" clip-rule="evenodd" d="M1320.3 -137C1468.1 -137 1568 1.51588 1568 149.489C1568 305.9 1476.53 464 1320.3 464C1148.95 464 1014 321.03 1014 149.489C1014 -14.3952 1156.6 -137 1320.3 -137Z" fill="url(#paint0_linear_11196_63433)"/>
</g>
<g filter="url(#filter1_f_11196_63433)">
<path fill-rule="evenodd" clip-rule="evenodd" d="M212.067 401C338.529 401 424 519.234 424 645.54C424 779.049 345.74 914 212.067 914C65.4633 914 -50 791.964 -50 645.54C-50 505.653 72.0075 401 212.067 401Z" fill="url(#paint1_linear_11196_63433)"/>
</g>
<defs>
<filter id="filter0_f_11196_63433" x="714" y="-437" width="1154" height="1201" filterUnits="userSpaceOnUse" color-interpolation-filters="sRGB">
<feFlood flood-opacity="0" result="BackgroundImageFix"/>
<feBlend mode="normal" in="SourceGraphic" in2="BackgroundImageFix" result="shape"/>
<feGaussianBlur stdDeviation="150" result="effect1_foregroundBlur_11196_63433"/>
</filter>
<filter id="filter1_f_11196_63433" x="-350" y="101" width="1074" height="1113" filterUnits="userSpaceOnUse" color-interpolation-filters="sRGB">
<feFlood flood-opacity="0" result="BackgroundImageFix"/>
<feBlend mode="normal" in="SourceGraphic" in2="BackgroundImageFix" result="shape"/>
<feGaussianBlur stdDeviation="150" result="effect1_foregroundBlur_11196_63433"/>
</filter>
<linearGradient id="paint0_linear_11196_63433" x1="1291" y1="-137" x2="1291" y2="464" gradientUnits="userSpaceOnUse">
<stop stop-color="#94F293"/>
<stop offset="1" stop-color="#4EA971"/>
</linearGradient>
<linearGradient id="paint1_linear_11196_63433" x1="187" y1="401" x2="187" y2="914" gradientUnits="userSpaceOnUse">
<stop stop-color="#94F293"/>
<stop offset="1" stop-color="#4EA971"/>
</linearGradient>
</defs>
</svg>
